grf
version=1
nRows=11
nColumns=37
inDegrees=no
endheader
time	ground_force_1_vx	ground_force_1_vy	ground_force_1_vz	ground_force_1_px	ground_force_1_py	ground_force_1_pz	ground_moment_1_mx	ground_moment_1_my	ground_moment_1_mz	ground_force_2_vx	ground_force_2_vy	ground_force_2_vz	ground_force_2_px	ground_force_2_py	ground_force_2_pz	ground_moment_2_mx	ground_moment_2_my	ground_moment_2_mz	ground_force_3_vx	ground_force_3_vy	ground_force_3_vz	ground_force_3_px	ground_force_3_py	ground_force_3_pz	ground_moment_3_mx	ground_moment_3_my	ground_moment_3_mz	ground_force_4_vx	ground_force_4_vy	ground_force_4_vz	ground_force_4_px	ground_force_4_py	ground_force_4_pz	ground_moment_4_mx	ground_moment_4_my	ground_moment_4_mz
      3.49000000	      0.00000000	     -0.00000000	      0.00000000	      0.00000000	      0.00000000	      0.00000000	      0.00000000	      0.00000000	      0.00000000	     82.30760956	     29.45856094	   -732.01623535	   -295.91025930	  -1103.26825924	      0.00000000	      0.00000000	      0.00000000	   6759.27346344	     89.66806695	    -11.22899076	   -719.92559814	   -272.80856195	   -701.37341751	      0.00000000	      0.00000000	     -0.00000000	  -5138.60946195	      0.00000000	     -0.00000000	      0.00000000	      0.00000000	      0.00000000	      0.00000000	      0.00000000	      0.00000000	      0.00000000
      3.50000000	      0.00000000	     -0.00000000	      0.00000000	      0.00000000	      0.00000000	      0.00000000	      0.00000000	      0.00000000	      0.00000000	     83.55661774	     36.06565475	   -762.92065430	   -290.02386491	  -1104.10647206	      0.00000000	      0.00000000	      0.00000000	   6388.14092429	     94.24442896	    -18.06543220	   -767.27502441	   -266.07391012	   -699.86958219	      0.00000000	      0.00000000	     -0.00000000	  -5279.51450259	      0.00000000	     -0.00000000	      0.00000000	      0.00000000	      0.00000000	      0.00000000	      0.00000000	      0.00000000	      0.00000000
      3.51000000	      0.00000000	     -0.00000000	      0.00000000	      0.00000000	      0.00000000	      0.00000000	      0.00000000	      0.00000000	      0.00000000	     83.41183472	     43.09495926	   -791.43090820	   -281.88703030	  -1105.99537311	      0.00000000	      0.00000000	      0.00000000	   5754.32103298	     89.40870396	    -30.91621799	   -805.84906006	   -257.14522673	   -696.04206727	      0.00000000	      0.00000000	     -0.00000000	  -4900.26300641	      0.00000000	     -0.00000000	      0.00000000	      0.00000000	      0.00000000	      0.00000000	      0.00000000	      0.00000000	      0.00000000
      3.52000000	      0.00000000	     -0.00000000	      0.00000000	      0.00000000	      0.00000000	      0.00000000	      0.00000000	      0.00000000	      0.00000000	     79.10713959	     50.02473068	   -813.11120605	   -273.59951611	  -1107.37903398	      0.00000000	      0.00000000	      0.00000000	   5135.12910627	     75.51204277	    -46.22820561	   -831.68444824	   -246.11963832	   -693.24755317	      0.00000000	      0.00000000	     -0.00000000	  -4219.13677145	      0.00000000	     -0.00000000	      0.00000000	      0.00000000	      0.00000000	      0.00000000	      0.00000000	      0.00000000	      0.00000000
      3.53000000	      0.00000000	     -0.00000000	      0.00000000	      0.00000000	      0.00000000	      0.00000000	      0.00000000	      0.00000000	      0.00000000	     70.53226471	     59.69496918	   -829.53131104	   -265.03442525	  -1109.90843740	      0.00000000	      0.00000000	      0.00000000	   4486.87809130	     62.02897490	    -61.26382607	   -851.23522949	   -235.30392777	   -689.93296842	      0.00000000	      0.00000000	     -0.00000000	  -3249.15827241	      0.00000000	     -0.00000000	      0.00000000	      0.00000000	      0.00000000	      0.00000000	      0.00000000	      0.00000000	      0.00000000
      3.54000000	      0.00000000	     -0.00000000	      0.00000000	      0.00000000	      0.00000000	      0.00000000	      0.00000000	      0.00000000	      0.00000000	     59.59405136	     69.17607117	   -838.23089600	   -256.33937180	  -1112.46039644	      0.00000000	      0.00000000	      0.00000000	   3596.70913903	     47.22686108	    -75.39385636	   -869.82476807	   -225.86920411	   -686.27881090	      0.00000000	      0.00000000	      0.00000000	  -2503.80229668	      0.00000000	     -0.00000000	      0.00000000	      0.00000000	      0.00000000	      0.00000000	      0.00000000	      0.00000000	      0.00000000
      3.55000000	      0.00000000	     -0.00000000	      0.00000000	      0.00000000	      0.00000000	      0.00000000	      0.00000000	      0.00000000	      0.00000000	     48.47700500	     76.35028839	   -842.37652588	   -247.86343192	  -1113.60344976	      0.00000000	      0.00000000	      0.00000000	   3128.36612038	     31.41520126	    -86.44461334	   -886.93255615	   -216.74540760	   -683.60551278	      0.00000000	      0.00000000	     -0.00000000	  -2354.96252522	      0.00000000	     -0.00000000	      0.00000000	      0.00000000	      0.00000000	      0.00000000	      0.00000000	      0.00000000	      0.00000000
      3.56000000	      0.00000000	     -0.00000000	      0.00000000	      0.00000000	      0.00000000	      0.00000000	      0.00000000	      0.00000000	      0.00000000	     36.18987656	     82.98905182	   -846.26062012	   -240.09936233	  -1115.59619647	      0.00000000	      0.00000000	      0.00000000	   2731.98750344	     15.65865912	    -96.57855362	   -897.66882324	   -208.70496299	   -680.95722559	      0.00000000	      0.00000000	     -0.00000000	  -2165.26655169	      0.00000000	     -0.00000000	      0.00000000	      0.00000000	      0.00000000	      0.00000000	      0.00000000	      0.00000000	      0.00000000
      3.57000000	      0.00000000	     -0.00000000	      0.00000000	      0.00000000	      0.00000000	      0.00000000	      0.00000000	      0.00000000	      0.00000000	     23.55617714	     89.94055176	   -846.57226562	   -231.15386727	  -1118.51945922	      0.00000000	      0.00000000	      0.00000000	   1898.04778664	      3.01744741	   -104.29607418	   -906.22052002	   -202.64899118	   -679.24575889	      0.00000000	      0.00000000	     -0.00000000	  -2034.78300848	      0.00000000	     -0.00000000	      0.00000000	      0.00000000	      0.00000000	      0.00000000	      0.00000000	      0.00000000	      0.00000000
      3.58000000	      0.00000000	     -0.00000000	      0.00000000	      0.00000000	      0.00000000	      0.00000000	      0.00000000	      0.00000000	      0.00000000	     10.89657402	     96.00075531	   -845.56378174	   -223.84596047	  -1120.23593632	      0.00000000	      0.00000000	      0.00000000	   1400.37939845	     -3.61453152	   -109.14132659	   -915.99584961	   -199.28309939	   -678.62125143	      0.00000000	      0.00000000	     -0.00000000	  -2194.37158329	      0.00000000	     -0.00000000	      0.00000000	      0.00000000	      0.00000000	      0.00000000	      0.00000000	      0.00000000	      0.00000000
      3.59000000	      0.00000000	     -0.00000000	      0.00000000	      0.00000000	      0.00000000	      0.00000000	      0.00000000	      0.00000000	      0.00000000	     -0.30712861	    100.28157043	   -845.64355469	   -216.88916656	  -1121.58585420	      0.00000000	      0.00000000	      0.00000000	    586.61209562	     -7.57100704	   -112.12081080	   -921.63995361	   -197.20761649	   -678.01382262	      0.00000000	      0.00000000	     -0.00000000	  -2032.33137653	      0.00000000	     -0.00000000	      0.00000000	      0.00000000	      0.00000000	      0.00000000	      0.00000000	      0.00000000	      0.00000000
